<?xml version="1.0" encoding="utf-8"?>
<COLLADA xmlns="http://www.collada.org/2005/11/COLLADASchema" version="1.4.1" xmlns:xsi="http://www.w3.org/2001/XMLSchema-instance">
  <asset>
    <contributor>
      <author>Blender User</author>
      <authoring_tool>Blender 4.2.2 LTS commit date:2024-09-23, commit time:12:18, hash:c03d7d98a413</authoring_tool>
    </contributor>
    <created>2025-03-11T17:38:23</created>
    <modified>2025-03-11T17:38:23</modified>
    <unit name="meter" meter="1"/>
    <up_axis>Z_UP</up_axis>
  </asset>
  <library_effects>
    <effect id="Material_002-effect">
      <profile_COMMON>
        <technique sid="common">
          <lambert>
            <emission>
              <color sid="emission">0 0 0 1</color>
            </emission>
            <diffuse>
              <color sid="diffuse">0.166902 0.166902 0.166902 1</color>
            </diffuse>
            <index_of_refraction>
              <float sid="ior">1.5</float>
            </index_of_refraction>
          </lambert>
        </technique>
      </profile_COMMON>
    </effect>
  </library_effects>
  <library_images/>
  <library_materials>
    <material id="Material_002-material" name="Material.002">
      <instance_effect url="#Material_002-effect"/>
    </material>
  </library_materials>
  <library_geometries>
    <geometry id="Cube_030-mesh" name="Cube.030">
      <mesh>
        <source id="Cube_030-mesh-positions">
          <float_array id="Cube_030-mesh-positions-array" count="132">-0.1 -2 0 -0.1 -2 3 -0.1 -1 0 -0.1 -1 3 0.1 -2 0 0.1 -2 3 0.1 -1 0 0.1 -1 3 -0.1 -1.5 0 -0.1 -2 2.5 -0.1 -1.5 3 -0.1 -1 2.5 0 -1 0 0 -1 3 0.1 -1 2.5 0.1 -1.5 0 0.1 -1.5 3 0.1 -2 2.5 0 -2 0 0 -2 3 0 -1.5 3 0 -1.5 0 0 -2 2.5 0.1 -1.5 2.5 0 -1 2.5 -0.1 -1.5 2.5 -0.1 1 3 0.1 1 3 -0.1 1 2.5 0 1 3 0.1 1 2.5 0 1 2.5 -0.1 2 3 0.1 2 3 -0.1 2 2.5 0 2 3 0.1 2 2.5 0 2 2.5 -0.1 1 0 0.1 1 0 0 1 0 -0.1 2 0 0.1 2 0 0 2 0</float_array>
          <technique_common>
            <accessor source="#Cube_030-mesh-positions-array" count="44" stride="3">
              <param name="X" type="float"/>
              <param name="Y" type="float"/>
              <param name="Z" type="float"/>
            </accessor>
          </technique_common>
        </source>
        <source id="Cube_030-mesh-normals">
          <float_array id="Cube_030-mesh-normals-array" count="252">-1 0 0 0 0 1 1 0 0 0 -1 0 0 0 -1 0 0 1 0 0 1 0 0 1 0 0 1 0 0 -1 0 0 -1 0 0 -1 0 -1 0 0 -1 0 0 -1 0 1 0 0 1 0 0 1 0 0 0 1 0 0 1 0 0 0 -1 -1 0 0 -1 0 0 -1 0 0 0 0 1 0 1 0 -1 0 0 0 0 -1 1 0 0 0 0 1 0 1 0 0 1 0 0 0 1 1 0 0 1 0 0 -1 0 0 0 0 -1 0 0 -1 0 -1 0 0 -1 0 0 1 0 -1 0 0 -1 0 0 0 0 1 1 0 0 0 -1 0 0 0 -1 0 0 1 0 0 1 0 0 1 0 0 1 0 0 -1 0 0 -1 0 0 -1 0 -1 0 0 -1 0 0 -1 0 1 0 0 1 0 0 1 0 0 0 1 0 0 1 0 0 0 -1 -1 0 0 -1 0 0 -1 0 0 0 0 1 0 1 0 -1 0 0 0 0 -1 1 0 0 0 0 1 0 1 0 0 1 0 0 0 1 1 0 0 1 0 0 -1 0 0 0 0 -1 0 0 -1 0 -1 0 0 -1 0 0 1 0 -1 0 0</float_array>
          <technique_common>
            <accessor source="#Cube_030-mesh-normals-array" count="84" stride="3">
              <param name="X" type="float"/>
              <param name="Y" type="float"/>
              <param name="Z" type="float"/>
            </accessor>
          </technique_common>
        </source>
        <source id="Cube_030-mesh-map-0">
          <float_array id="Cube_030-mesh-map-0-array" count="504">0.625 0.125 0.5 0.25 0.5 0.125 0.75 0.5 0.875 0.5 0.875 0.5 0.625 0.625 0.5 0.75 0.5 0.625 0.625 0.875 0.5 1 0.5 0.875 0.375 0.625 0.25 0.75 0.25 0.625 0.875 0.625 0.75 0.75 0.75 0.625 0.75 0.625 0.625 0.75 0.625 0.625 0.75 0.5 0.625 0.625 0.625 0.5 0.875 0.5 0.75 0.625 0.75 0.5 0.25 0.625 0.125 0.75 0.125 0.625 0.25 0.5 0.125 0.625 0.125 0.5 0.375 0.5 0.25 0.625 0.25 0.5 0.5 0.875 0.375 1 0.375 0.875 0.5 0.75 0.375 0.875 0.375 0.75 0.625 0.75 0.5 0.875 0.5 0.75 0.5 0.625 0.375 0.75 0.375 0.625 0.5 0.5 0.375 0.625 0.375 0.5 0.625 0.5 0.5 0.625 0.5 0.5 0.5 0.375 0.375 0.5 0.375 0.375 0.5 0.25 0.375 0.375 0.375 0.25 0.5 0.25 0.5 0.375 0.5 0.375 0.5 0.125 0.375 0.25 0.375 0.125 0.5 0 0.375 0.125 0.375 0 0.625 0 0.5 0.125 0.5 0 0.75 0.5 0.875 0.5 0.875 0.5 0.5 0.375 0.5 0.25 0.5 0.25 0.625 0.25 0.5 0.25 0.5 0.25 0.5 0.375 0.5 0.5 0.5 0.5 0.5 0.5 0.625 0.5 0.625 0.5 0.625 0.5 0.75 0.5 0.75 0.5 0.625 0.375 0.5 0.5 0.5 0.375 0.625 0.25 0.5 0.375 0.5 0.25 0.625 0.5 0.75 0.5 0.75 0.5 0.5 0.5 0.5 0.5 0.5 0.5 0.5 0.5 0.625 0.5 0.625 0.5 0.625 0.25 0.5 0.25 0.5 0.25 0.5 0.375 0.5 0.5 0.5 0.5 0.5 0.25 0.5 0.375 0.5 0.375 0.5 0.375 0.5 0.5 0.5 0.5 0.5 0.25 0.5 0.375 0.5 0.375 0.5 0.5 0.5 0.375 0.5 0.375 0.5 0.25 0.5 0.25 0.5 0.25 0.625 0.125 0.625 0.25 0.5 0.25 0.75 0.5 0.75 0.5 0.875 0.5 0.625 0.625 0.625 0.75 0.5 0.75 0.625 0.875 0.625 1 0.5 1 0.375 0.625 0.375 0.75 0.25 0.75 0.875 0.625 0.875 0.75 0.75 0.75 0.75 0.625 0.75 0.75 0.625 0.75 0.75 0.5 0.75 0.625 0.625 0.625 0.875 0.5 0.875 0.625 0.75 0.625 0.25 0.625 0.25 0.75 0.125 0.75 0.25 0.5 0.25 0.625 0.125 0.625 0.375 0.5 0.375 0.625 0.25 0.625 0.5 0.875 0.5 1 0.375 1 0.5 0.75 0.5 0.875 0.375 0.875 0.625 0.75 0.625 0.875 0.5 0.875 0.5 0.625 0.5 0.75 0.375 0.75 0.5 0.5 0.5 0.625 0.375 0.625 0.625 0.5 0.625 0.625 0.5 0.625 0.5 0.375 0.5 0.5 0.375 0.5 0.5 0.25 0.5 0.375 0.375 0.375 0.5 0.25 0.5 0.25 0.5 0.375 0.5 0.125 0.5 0.25 0.375 0.25 0.5 0 0.5 0.125 0.375 0.125 0.625 0 0.625 0.125 0.5 0.125 0.75 0.5 0.75 0.5 0.875 0.5 0.5 0.375 0.5 0.375 0.5 0.25 0.625 0.25 0.625 0.25 0.5 0.25 0.5 0.375 0.5 0.375 0.5 0.5 0.5 0.5 0.5 0.5 0.625 0.5 0.625 0.5 0.625 0.5 0.75 0.5 0.625 0.375 0.625 0.5 0.5 0.5 0.625 0.25 0.625 0.375 0.5 0.375 0.625 0.5 0.625 0.5 0.75 0.5 0.5 0.5 0.5 0.5 0.5 0.5 0.5 0.5 0.5 0.5 0.625 0.5 0.625 0.25 0.625 0.25 0.5 0.25 0.5 0.375 0.5 0.375 0.5 0.5 0.5 0.25 0.5 0.25 0.5 0.375 0.5 0.375 0.5 0.375 0.5 0.5 0.5 0.25 0.5 0.25 0.5 0.375 0.5 0.5 0.5 0.5 0.5 0.375 0.5 0.25 0.5 0.25 0.5 0.25</float_array>
          <technique_common>
            <accessor source="#Cube_030-mesh-map-0-array" count="252" stride="2">
              <param name="S" type="float"/>
              <param name="T" type="float"/>
            </accessor>
          </technique_common>
        </source>
        <vertices id="Cube_030-mesh-vertices">
          <input semantic="POSITION" source="#Cube_030-mesh-positions"/>
        </vertices>
        <triangles material="Material_002-material" count="84">
          <input semantic="VERTEX" source="#Cube_030-mesh-vertices" offset="0"/>
          <input semantic="NORMAL" source="#Cube_030-mesh-normals" offset="1"/>
          <input semantic="TEXCOORD" source="#Cube_030-mesh-map-0" offset="2" set="0"/>
          <p>10 0 0 11 0 1 25 0 2 13 1 3 26 1 4 3 1 5 16 2 6 17 2 7 23 2 8 19 3 9 9 3 10 22 3 11 15 4 12 18 4 13 21 4 14 10 5 15 19 5 16 20 5 17 20 6 18 5 6 19 16 6 20 13 7 21 16 7 22 7 7 23 3 8 24 20 8 25 13 8 26 21 9 27 0 9 28 8 9 29 12 10 30 8 10 31 2 10 32 6 11 33 21 11 34 12 11 35 22 12 36 0 12 37 18 12 38 17 13 39 18 13 40 4 13 41 5 14 42 22 14 43 17 14 44 23 15 45 4 15 46 15 15 47 14 16 48 15 16 49 6 16 50 7 17 51 23 17 52 14 17 53 24 18 54 6 18 55 12 18 56 11 19 57 12 19 58 2 19 59 11 20 60 31 20 61 24 20 62 25 21 63 2 21 64 8 21 65 9 22 66 8 22 67 0 22 68 1 23 69 25 23 70 9 23 71 29 24 72 32 24 73 26 24 74 37 25 75 41 25 76 34 25 77 3 26 78 28 26 79 11 26 80 24 27 81 30 27 82 14 27 83 14 28 84 27 28 85 7 28 86 7 29 87 29 29 88 13 29 89 35 30 90 36 30 91 37 30 92 32 31 93 37 31 94 34 31 95 27 32 96 35 32 97 29 32 98 30 33 99 42 33 100 36 33 101 30 34 102 33 34 103 27 34 104 26 35 105 34 35 106 28 35 107 40 36 108 42 36 109 39 36 110 38 37 111 43 37 112 40 37 113 31 38 114 39 38 115 30 38 116 28 39 117 40 39 118 31 39 119 36 40 120 43 40 121 37 40 122 34 41 123 38 41 124 28 41 125 10 42 126 3 42 127 11 42 128 13 43 129 29 43 130 26 43 131 16 44 132 5 44 133 17 44 134 19 45 135 1 45 136 9 45 137 15 46 138 4 46 139 18 46 140 10 47 141 1 47 142 19 47 143 20 48 144 19 48 145 5 48 146 13 49 147 20 49 148 16 49 149 3 50 150 10 50 151 20 50 152 21 51 153 18 51 154 0 51 155 12 52 156 21 52 157 8 52 158 6 53 159 15 53 160 21 53 161 22 54 162 9 54 163 0 54 164 17 55 165 22 55 166 18 55 167 5 56 168 19 56 169 22 56 170 23 57 171 17 57 172 4 57 173 14 58 174 23 58 175 15 58 176 7 59 177 16 59 178 23 59 179 24 60 180 14 60 181 6 60 182 11 61 183 24 61 184 12 61 185 11 62 186 28 62 187 31 62 188 25 63 189 11 63 190 2 63 191 9 64 192 25 64 193 8 64 194 1 65 195 10 65 196 25 65 197 29 66 198 35 66 199 32 66 200 37 67 201 43 67 202 41 67 203 3 68 204 26 68 205 28 68 206 24 69 207 31 69 208 30 69 209 14 70 210 30 70 211 27 70 212 7 71 213 27 71 214 29 71 215 35 72 216 33 72 217 36 72 218 32 73 219 35 73 220 37 73 221 27 74 222 33 74 223 35 74 224 30 75 225 39 75 226 42 75 227 30 76 228 36 76 229 33 76 230 26 77 231 32 77 232 34 77 233 40 78 234 43 78 235 42 78 236 38 79 237 41 79 238 43 79 239 31 80 240 40 80 241 39 80 242 28 81 243 38 81 244 40 81 245 36 82 246 42 82 247 43 82 248 34 83 249 41 83 250 38 83 251</p>
        </triangles>
      </mesh>
    </geometry>
  </library_geometries>
  <library_visual_scenes>
    <visual_scene id="Scene" name="Scene">
      <node id="Gate" name="Gate" type="NODE">
        <matrix sid="transform">1 0 0 0 0 1 0 0 0 0 1 0 0 0 0 1</matrix>
        <instance_geometry url="#Cube_030-mesh" name="Gate">
          <bind_material>
            <technique_common>
              <instance_material symbol="Material_002-material" target="#Material_002-material">
                <bind_vertex_input semantic="UVMap" input_semantic="TEXCOORD" input_set="0"/>
              </instance_material>
            </technique_common>
          </bind_material>
        </instance_geometry>
      </node>
    </visual_scene>
  </library_visual_scenes>
  <scene>
    <instance_visual_scene url="#Scene"/>
  </scene>
</COLLADA>